<?xml version="1.0" encoding="UTF-8" standalone="no"?>
<!-- Created with Inkscape (http://www.inkscape.org/) -->

<svg
   width="205mm"
   height="203mm"
   viewBox="0 0 205 203"
   version="1.1"
   id="svg423"
   inkscape:version="1.2.2 (b0a84865, 2022-12-01)"
   sodipodi:docname="python-torino.svg"
   xmlns:inkscape="http://www.inkscape.org/namespaces/inkscape"
   xmlns:sodipodi="http://sodipodi.sourceforge.net/DTD/sodipodi-0.dtd"
   xmlns="http://www.w3.org/2000/svg"
   xmlns:svg="http://www.w3.org/2000/svg">
  <sodipodi:namedview
     id="namedview425"
     pagecolor="#ffffff"
     bordercolor="#666666"
     borderopacity="1.0"
     inkscape:showpageshadow="2"
     inkscape:pageopacity="0.0"
     inkscape:pagecheckerboard="0"
     inkscape:deskcolor="#d1d1d1"
     inkscape:document-units="mm"
     showgrid="false"
     inkscape:zoom="0.5"
     inkscape:cx="331"
     inkscape:cy="436"
     inkscape:window-width="1276"
     inkscape:window-height="712"
     inkscape:window-x="329"
     inkscape:window-y="179"
     inkscape:window-maximized="0"
     inkscape:current-layer="layer1" />
  <defs
     id="defs420" />
  <g
     inkscape:label="Layer 1"
     inkscape:groupmode="layer"
     id="layer1">
    <g
       id="g22"
       transform="matrix(0.9888225,0,0,0.9888225,1.1025489,0.99355444)">
      <path
         class="cls-1"
         d="m 201.81,62.25 c -4.19,-10.51 -11.13,-18.66 -20.98,-24.29 -6.52,-3.73 -13.55,-5.79 -21.02,-6.17 -7.54,-0.38 -14.69,1.19 -21.46,4.6 -8.1,4.08 -14.31,10.1 -18.6,18.03 -3.34,6.18 -5.17,12.8 -5.12,19.9 0.06,7.5 0,15.01 0,22.51 0,1.05 0.06,2.11 0.21,3.15 0.38,2.48 2.52,4.27 5.09,4.35 2.99,0.09 5.29,-1.45 5.8,-4.05 0.26,-1.34 0.36,-2.72 0.37,-4.09 0.04,-7.38 0.06,-14.75 0.01,-22.13 -0.04,-6.24 1.69,-12 5.29,-16.99 6.68,-9.23 15.68,-14.23 27.31,-13.73 8.24,0.35 15.63,3.33 21.8,8.9 9.32,8.4 13.71,21.09 11.74,33.48 -1.58,9.94 -6.86,17.86 -15.35,23.73 -5.67,3.92 -12.13,5.89 -18.97,6.15 -6.76,0.25 -13.54,0.06 -20.31,0.06 0,0.03 0,0.06 0,0.09 -5.27,0 -10.54,0.02 -15.81,0 -4.08,-0.02 -8.12,0.27 -12.02,1.5 -9.35,2.95 -16.58,8.59 -21.41,17.17 -2.68,4.76 -4.46,9.85 -4.56,15.35 -0.13,6.89 -0.09,13.78 0,20.68 0.02,1.85 0.26,3.69 0.8,5.46 1.3,4.31 3.88,7.78 7.39,10.6 1.27,1.02 2.63,1.86 4.05,2.52 -10.82,0.47 -21.42,1.03 -31.29,1.61 0,0 0.02,-0.01 0.02,-0.02 1.64,-2.38 2.48,-5.01 2.91,-7.78 0.6,-4.15 -0.6,-8.28 -0.39,-12.47 0.07,-6.83 0.52,-13.68 0.44,-20.53 0,-0.41 -0.61,-0.49 -0.72,-0.11 -2.05,6.63 -4.13,13.28 -5.29,20.13 -0.49,3.43 -1.52,7.08 -1.45,10.57 0.25,3.69 1.47,7.32 3.84,10.24 -6.7,0.4 -13.06,0.82 -18.91,1.24 0.82,-1.61 1.28,-3.2 1.62,-4.78 1.15,-4.9 -0.09,-9.85 0.18,-14.81 0.2,-6.65 0.84,-13.39 0.99,-20.08 0.02,-0.33 -0.47,-0.39 -0.55,-0.09 -1.81,6.54 -3.69,13.05 -4.73,19.77 -0.52,4 -1.77,8.83 -0.94,12.84 0.51,2.52 1.12,4.96 2.59,7.21 -6.57,0.48 -12.47,0.96 -17.48,1.42 0.24,-0.66 0.43,-1.32 0.58,-1.98 1.39,-5.29 0.28,-10.67 0.65,-16.04 0.33,-6.13 1.15,-12.31 1.58,-18.46 0.02,-0.23 -0.33,-0.28 -0.38,-0.06 -0.81,3 -1.52,6.02 -2.28,9.03 -0.75,3.01 -1.41,6.11 -1.86,9.2 -0.42,3.14 -1.02,6.26 -0.98,9.45 0.21,3 0.72,6.2 2.06,8.91 -1.46,0.14 -2.84,0.27 -4.13,0.4 -5.96,0.61 -13.04,2.04 -13.04,-4.21 l 4.04,-30.87 c 0.05,-0.39 -0.47,-0.56 -0.66,-0.21 -4.52,8.52 -23.67,46.66 -3.2,44.67 63.71,-6.2 168.16,-15.93 168.16,-15.93 0,0 -10.11,-0.79 -62.27,0.97 -0.11,0 -0.21,0 -0.32,0.01 1.33,-0.74 2.59,-1.64 3.74,-2.69 4.51,-4.12 7.12,-9.19 7.14,-15.42 0,-2.91 0.08,-5.81 0.08,-8.72 0,-5.84 -0.02,-11.68 -0.06,-17.52 -0.01,-1.45 -0.28,-2.87 -1.29,-4.02 -1.69,-1.92 -4.2,-2.46 -6.83,-1.48 -1.95,0.72 -3.17,2.73 -3.17,5.21 0,7.98 0,15.97 -0.02,23.95 0,2.58 -0.22,5.11 -1.81,7.3 -2,2.76 -4.63,4.42 -8.09,4.28 -5.42,-0.22 -9.61,-4.83 -9.65,-10.25 -0.03,-5.81 -0.02,-11.62 0,-17.43 0.03,-5.99 2.06,-11.27 5.96,-15.77 4.43,-5.11 10.02,-8.16 16.83,-8.62 3.63,-0.24 7.27,-0.17 10.91,-0.19 10.44,-0.07 20.88,-0.02 31.32,-0.2 5.57,-0.09 10.9,-1.48 16.02,-3.71 7.3,-3.19 13.53,-7.75 18.53,-13.98 6.19,-7.71 9.85,-16.46 10.51,-26.33 0.47,-7.02 -0.56,-13.88 -3.18,-20.45 z"
         id="path6"
         style="fill:#1d1d1b" />
      <path
         class="cls-1"
         d="m 5.8,137.27 5.73,0.63 -0.12,0.05 0.14,-0.05 0.27,0.03 c 0.13,0.01 0.25,0 0.37,-0.05 2.29,-0.87 27.17,-9.95 67.76,-8.88 0.31,0 0.36,-0.45 0.05,-0.49 -9.84,-1.47 -37.28,-4.57 -61.14,2.14 0.51,-1.19 1.05,-2.36 1.63,-3.51 0.71,-1.37 1.45,-2.73 2.26,-4.04 0.79,-1.32 1.65,-2.6 2.51,-3.88 0.87,-1.27 1.77,-2.51 2.71,-3.73 0.94,-1.21 1.9,-2.41 2.91,-3.57 0.98,-1.17 2.03,-2.29 3.06,-3.43 1.05,-1.11 2.11,-2.21 3.2,-3.28 1.07,-1.09 2.22,-2.1 3.33,-3.14 1.15,-1 2.27,-2.04 3.46,-2.99 l 1.75,-1.47 1.79,-1.42 c 1.18,-0.96 2.42,-1.84 3.63,-2.76 1.22,-0.91 2.48,-1.75 3.72,-2.63 l 3.8,-2.51 3.85,-2.42 4.16,-2.48 1.01,-0.64 c 0.34,-0.22 0.36,-0.7 0.05,-0.95 l -1.92,-1.54 c -0.35,-0.28 -0.27,-0.82 0.14,-1 l 4.75,-1.99 c 0.15,-0.06 0.27,-0.19 0.33,-0.35 l 2.74,-7.45 0.25,-0.71 c 0.1,-0.27 0,-0.45 -0.28,-0.71 l -1,-0.81 c -0.66,-0.45 -0.41,-0.91 0.08,-1.07 6.01,-2.03 9.07,-3.17 17.28,-5.48 l -5.59,0.88 c -0.46,0.08 -0.83,-0.39 -0.63,-0.82 0.7,-1.51 1.53,-3.32 2.17,-4.64 1.09,-2.25 2.2,-4.49 3.32,-6.72 1.12,-2.23 2.24,-4.47 3.4,-6.68 0.58,-1.1 1.14,-2.22 1.74,-3.32 l 1.76,-3.3 c 1.2,-2.18 2.37,-4.4 3.61,-6.56 0.62,-1.09 1.21,-2.18 1.85,-3.25 l 1.89,-3.23 1.95,-3.19 c 0.64,-1.07 2.75,-4.58 3.43,-5.63 0.68,-1.04 0.37,-1.27 -0.36,-0.26 -0.73,1.01 -2.88,4.5 -3.57,5.54 l -2.09,3.11 -2.03,3.15 c -0.69,1.05 -1.33,2.12 -2,3.17 -1.33,2.12 -2.61,4.27 -3.89,6.42 l -1.88,3.25 c -0.63,1.08 -1.23,2.18 -1.85,3.27 -1.23,2.18 -2.43,4.38 -3.62,6.59 -1.18,2.21 -2.34,4.43 -3.49,6.67 -1.15,2.23 -2.27,4.47 -3.38,6.74 l -0.07,0.16 c -6.81,1.32 -6.82,1.27 -13.62,2.64 l -2.25,0.45 c -0.54,0.11 -0.64,0.83 -0.16,1.09 l 2.05,1.08 3.54,1.87 c 0.26,0.14 0.38,0.44 0.28,0.71 l -1.73,4.89 c -0.05,0.15 -0.17,0.28 -0.32,0.34 l -6.73,2.85 -1.32,0.56 c -0.41,0.17 -0.48,0.72 -0.13,1 l 1.13,0.89 1.45,1.14 c 0.32,0.26 0.29,0.76 -0.07,0.96 l -1.68,0.97 -3.91,2.48 c -1.28,0.87 -2.56,1.74 -3.82,2.63 -1.25,0.92 -2.52,1.8 -3.74,2.75 -1.23,0.95 -2.47,1.88 -3.66,2.88 l -1.8,1.47 -1.76,1.53 c -1.18,1.01 -2.29,2.1 -3.44,3.15 -1.1,1.1 -2.24,2.16 -3.3,3.31 -1.09,1.11 -2.13,2.27 -3.18,3.44 -1.02,1.18 -2.04,2.37 -3,3.61 -0.98,1.22 -1.91,2.48 -2.82,3.76 -0.91,1.28 -1.78,2.59 -2.62,3.91 -0.83,1.33 -1.62,2.7 -2.36,4.08 -0.75,1.38 -1.43,2.8 -2.08,4.24 -0.6,1.37 -1.16,2.77 -1.66,4.18 -4.32,1.26 -8.52,2.86 -12.46,4.85 -0.71,0.36 -0.51,1.44 0.28,1.52 z"
         id="path8"
         style="fill:#1d1d1b" />
      <path
         class="cls-1"
         d="m 2.34,154.04 6.46,0.71 c 0.11,0.01 0.21,0 0.31,-0.04 2.14,-0.82 27.05,-9.96 67.79,-8.89 0.31,0 0.36,-0.45 0.05,-0.49 -11.8,-1.77 -48.96,-5.88 -74.85,7.42 -0.6,0.31 -0.44,1.22 0.24,1.29 z"
         id="path10"
         style="fill:#1d1d1b" />
      <path
         class="cls-1"
         d="m 93.69,108.72 c 0.01,0.18 0.16,0.32 0.33,0.32 0.18,0.01 0.33,-0.12 0.35,-0.3 0,-0.07 0.24,-6.05 3.1,-8.92 0.48,-0.49 0.95,-0.67 1.42,-0.57 2.23,0.5 5.36,5.93 7.27,11.27 0.81,2.25 2.32,3.02 3.69,3.02 0.38,0 0.76,-0.06 1.1,-0.17 2.01,-0.62 3.65,-2.91 2.92,-5.65 -1.49,-5.64 -6.96,-19.7 -25.4,-28.46 -0.13,-0.06 -0.29,-0.04 -0.39,0.07 -0.1,0.1 -0.13,0.26 -0.07,0.39 0.04,0.1 4.41,9.91 5.68,29 z"
         id="path12"
         style="fill:#1d1d1b" />
      <path
         class="cls-1"
         d="m 70.28,79.64 c 0.05,0.2 0.26,0.32 0.46,0.27 l 14.44,-3.22 c 2.49,-0.57 5,0.72 6.2,1.33 l 11.21,5.74 c 0.06,0.03 0.12,0.04 0.18,0.04 0.14,0 0.27,-0.07 0.34,-0.2 0.1,-0.18 0.04,-0.41 -0.14,-0.52 L 88.25,74.24 C 87.7,73.91 87.04,73.83 86.43,74.03 l -15.87,5.12 c -0.2,0.06 -0.31,0.27 -0.25,0.47 z"
         id="path14"
         style="fill:#1d1d1b" />
      <path
         class="cls-1"
         d="m 89.99,62.58 -7.8,2.8 6.58,-1.1 c 0.44,-0.08 0.83,0.3 0.76,0.74 l -0.46,7.32 c -0.08,0.51 0.43,0.9 0.9,0.7 l 7.04,-2.64 c 0.38,-0.16 0.81,0.06 0.89,0.46 l 4.14,7.76 c 0.04,0.07 0.14,0.04 0.14,-0.03 l 0.06,-5.79 c 0.09,-0.74 1.71,-0.54 2.03,-0.59 0.58,-0.09 0.75,-0.84 0.28,-1.17 L 90.53,62.69 c -0.15,-0.11 -0.34,-0.14 -0.52,-0.1 z"
         id="path16"
         style="fill:#1d1d1b" />
      <path
         class="cls-1"
         d="m 102.96,65.25 c 3.96,-33.64 9.88,-47.95 9.11,-48.69 -0.34,-0.32 -11.44,35.01 -13.06,45.08 -0.11,0.67 -0.76,1.1 -1.41,0.93 l -3.7,-0.96 c -0.05,-0.01 -0.08,0.06 -0.03,0.08 l 7.38,4.4 c 0.71,0.42 1.62,-0.03 1.72,-0.85 z"
         id="path18"
         style="fill:#1d1d1b" />
      <path
         class="cls-1"
         d="m 109.31,6.07 c 3.84,0.26 4.42,0.51 1.95,3.34 3.17,-1.94 3.03,-0.06 2.5,3.9 1.08,-3.97 1.71,-5.85 4.1,-3.94 -1.32,-2.82 -0.63,-3.07 3.32,-3.37 -3.84,-0.26 -4.42,-0.51 -1.95,-3.34 -3.17,1.94 -3.29,1.3 -2.75,-2.67 -1.08,3.97 -1.46,4.61 -3.84,2.7 1.32,2.82 0.63,3.07 -3.32,3.37 z"
         id="path20"
         style="fill:#1d1d1b" />
    </g>
  </g>
</svg>
